<?xml version="1.0" encoding="UTF-8" standalone="no"?>
<!-- Created with Inkscape (http://www.inkscape.org/) -->

<svg
   xml:space="preserve"
   id="svg5"
   version="1.1"
   viewBox="0 0 128 128"
   height="128"
   width="128"
   inkscape:version="1.2.2 (b0a8486541, 2022-12-01)"
   sodipodi:docname="logo.svg"
   xmlns:inkscape="http://www.inkscape.org/namespaces/inkscape"
   xmlns:sodipodi="http://sodipodi.sourceforge.net/DTD/sodipodi-0.dtd"
   xmlns:xlink="http://www.w3.org/1999/xlink"
   xmlns="http://www.w3.org/2000/svg"
   xmlns:svg="http://www.w3.org/2000/svg"><sodipodi:namedview
     id="namedview7"
     pagecolor="#ffffff"
     bordercolor="#000000"
     borderopacity="0.25"
     inkscape:showpageshadow="2"
     inkscape:pageopacity="0.0"
     inkscape:pagecheckerboard="0"
     inkscape:deskcolor="#d1d1d1"
     inkscape:document-units="px"
     showgrid="false"
     inkscape:zoom="2"
     inkscape:cx="86.75"
     inkscape:cy="65.5"
     inkscape:window-width="1920"
     inkscape:window-height="977"
     inkscape:window-x="0"
     inkscape:window-y="0"
     inkscape:window-maximized="1"
     inkscape:current-layer="layer1"><inkscape:grid
       type="xygrid"
       id="grid13665" /></sodipodi:namedview><defs
     id="defs2"><rect
       x="42"
       y="38.5"
       width="34.75"
       height="48.25"
       id="rect98357" /><linearGradient
       inkscape:collect="always"
       id="linearGradient68916"><stop
         style="stop-color:#81c5fe;stop-opacity:1;"
         offset="0"
         id="stop68912" /><stop
         style="stop-color:#81c5fe;stop-opacity:0.5;"
         offset="0.60000002"
         id="stop74580" /><stop
         style="stop-color:#81c5fe;stop-opacity:0;"
         offset="1"
         id="stop68914" /></linearGradient><linearGradient
       inkscape:collect="always"
       id="linearGradient45602"><stop
         style="stop-color:#a6d6ef;stop-opacity:1;"
         offset="0"
         id="stop45598" /><stop
         style="stop-color:#0077bc;stop-opacity:1;"
         offset="0.5"
         id="stop59829" /><stop
         style="stop-color:#003a69;stop-opacity:1;"
         offset="1"
         id="stop45600" /></linearGradient><linearGradient
       inkscape:collect="always"
       id="linearGradient19907"><stop
         style="stop-color:#f9ffff;stop-opacity:1;"
         offset="0"
         id="stop19903" /><stop
         style="stop-color:#0086cf;stop-opacity:1;"
         offset="1"
         id="stop19905" /></linearGradient><radialGradient
       inkscape:collect="always"
       xlink:href="#linearGradient19907"
       id="radialGradient19909"
       cx="64.91507"
       cy="122.64629"
       fx="64.91507"
       fy="122.64629"
       r="41.741209"
       gradientTransform="matrix(1.0898394,0,0,0.72615397,-5.831929,15.893228)"
       gradientUnits="userSpaceOnUse" /><radialGradient
       inkscape:collect="always"
       xlink:href="#linearGradient45602"
       id="radialGradient45604"
       cx="65.031387"
       cy="88.854729"
       fx="65.031387"
       fy="88.854729"
       r="46"
       gradientTransform="matrix(1.2119565,1.0708949e-8,0,0.90741764,-13.565216,-1.1371416)"
       gradientUnits="userSpaceOnUse" /><radialGradient
       inkscape:collect="always"
       xlink:href="#linearGradient68916"
       id="radialGradient68918"
       cx="65.1875"
       cy="11.689511"
       fx="65.1875"
       fy="11.689511"
       r="23"
       gradientTransform="matrix(-1,0,0,-0.57059729,129.5,21.920003)"
       gradientUnits="userSpaceOnUse" /></defs><g
     inkscape:label="Layer 1"
     inkscape:groupmode="layer"
     id="layer1"><circle
       style="fill:#020a20;fill-opacity:1;stroke-width:7.21453"
       id="path234"
       cx="64"
       cy="64"
       r="50" /><path
       id="path234-6"
       style="fill:#000e23;fill-opacity:1;stroke-width:7.21453"
       d="M 64,14 A 50,50 0 0 0 14,64 50,50 0 0 0 64,114 50,50 0 0 0 114,64 50,50 0 0 0 64,14 Z m 0,4 A 46,46 0 0 1 110,64 46,46 0 0 1 64,110 46,46 0 0 1 18,64 46,46 0 0 1 64,18 Z" /><path
       id="path10282-3"
       style="fill:url(#radialGradient19909);fill-opacity:1;stroke-width:9.97912"
       d="m 22.070312,82.878906 c 0.885771,1.959132 1.907808,3.853751 3.058594,5.669922 0.02402,0.04431 0.0481,0.08858 0.07227,0.132813 1.174555,1.845822 2.4793,3.605498 3.904297,5.265625 l 0.01953,0.02734 c 1.433623,1.668913 2.985131,3.232824 4.642578,4.679688 1.658011,1.447176 3.417739,2.773506 5.265625,3.968756 1.847347,1.19541 3.778085,2.25673 5.777344,3.17578 1.999879,0.91883 4.063121,1.69295 6.173828,2.3164 2.000597,0.58296 4.038494,1.0293 6.099609,1.33594 0.113187,0.0252 0.22647,0.0499 0.339844,0.0742 h 0.0039 C 59.604327,109.8405 61.800716,109.99911 64,110 c 2.165107,-0.002 4.327383,-0.15651 6.470703,-0.46289 10.819814,-1.54803 20.734877,-6.89815 27.96875,-15.091798 2.868347,-3.249123 5.263117,-6.887311 7.113277,-10.80664 C 98.824861,90.619441 86.743382,96.896484 65,96.896484 c -23.431651,0 -36.082962,-6.738487 -42.929688,-14.017578 z"
       sodipodi:nodetypes="ccccccccccccccccsc" /><path
       id="path234-5"
       style="fill:url(#radialGradient45604);fill-opacity:1;stroke-width:7.21453"
       d="m 64,18 c -25.405098,0 -46,20.594902 -46,46 0.005,2.260866 0.176705,4.518286 0.513672,6.753906 C 24.547256,76.490183 37.800644,84.482422 65,84.482422 c 25.673694,0 38.5354,-7.988683 44.48438,-13.72461 C 109.82219,68.520951 109.99453,66.262218 110,64 110,38.594902 89.405098,18 64,18 Z"
       sodipodi:nodetypes="sccsccs" /><path
       id="rect13771-1"
       style="fill:#001934;fill-opacity:1;stroke-width:8.84785"
       d="m 47,17 c 0,0 -16.585639,10.120402 -16.585639,48 0,35.51412 16.585659,46 16.585659,46 0,0 -30.933078,-9.40741 -33.00002,-46 0.618718,-37.913323 33,-48 33,-48 z"
       sodipodi:nodetypes="csccc" /><path
       id="rect13771-1-7"
       style="fill:#001934;fill-opacity:1;stroke-width:8.84785"
       d="m 81.00001,17 c 0,0 16.585639,10.120402 16.585639,48 0,35.51412 -16.585659,46 -16.585659,46 0,0 30.93308,-9.40741 33.00002,-46 -0.61872,-37.913323 -33,-48 -33,-48 z"
       sodipodi:nodetypes="csccc" /><path
       id="rect13771"
       style="fill:#00193d;fill-opacity:1;stroke-width:8.84787402;stroke-dasharray:none"
       d="m 14,65.043953 c 0,0 8.620403,19.439061 51,19.439061 40.01412,0 49,-19.439061 49,-19.439061 0,0 -0.0168,31.853424 -49,31.853424 -50.940262,0 -51,-31.853424 -51,-31.853424 z"
       sodipodi:nodetypes="csccc" /><path
       id="rect13771-0"
       style="fill:#00193d;fill-opacity:1;stroke-width:8.84787;stroke-dasharray:none"
       d="m 47.558058,80.685094 c 0,0 11.181063,-0.03626 16.28033,-0.03626 38.423132,0 39.911612,-12.575547 39.911612,-12.575547 0,0 -0.2668,14.603422 -36.5,14.353422 -9.440262,0 -19.691942,-1.741616 -19.691942,-1.741616 z"
       sodipodi:nodetypes="csccc" /><ellipse
       style="fill:url(#radialGradient68918);fill-opacity:1;stroke:none;stroke-width:3.41405;stroke-dasharray:none;stroke-opacity:1"
       id="path68902"
       cx="64.25"
       cy="23.875"
       rx="23"
       ry="9.875" /><path
       id="path85554"
       style="fill:#52aedf;fill-opacity:1;stroke-width:6.98139;stroke-dasharray:none"
       d="m 14.058594,65.830078 c 0.09112,1.689883 1.379923,7.97663 6.311053,14.215906 2.465565,3.119639 6.24796,6.38366 11.309016,8.61777 5.061056,2.234111 9.400772,4.688313 18.168478,5.438313 C 26.038132,87.018893 19.60054,80.337414 14.058594,65.830078 Z"
       sodipodi:nodetypes="csscc" /><ellipse
       style="fill:#a3e9fe;fill-opacity:1;stroke:none;stroke-width:3;stroke-dasharray:none;stroke-opacity:1"
       id="path93583"
       cx="77.870132"
       cy="68.589355"
       rx="1.6793786"
       ry="1.0606601" /><ellipse
       style="fill:#a3e9fe;fill-opacity:1;stroke:none;stroke-width:1.34211;stroke-dasharray:none;stroke-opacity:1"
       id="path93583-2"
       cx="66.954178"
       cy="56.689491"
       rx="0.75130099"
       ry="0.47450584" /><path
       d="m 74.026,66.755507 h -3.888 v -11.736 H 57.862 v 11.736 h -3.888 v -25.704 h 3.888 v 10.656 h 12.276 v -10.656 h 3.888 z"
       style="font-weight:500;font-size:36px;font-family:'Noto Sans';-inkscape-font-specification:'Noto Sans Medium';white-space:pre;fill:#c0f3fe;stroke-width:3"
       id="path102165" /><path
       d="m 44.148437,36.75 2.140625,0.210937 V 37.375 H 40.656249 V 36.960937 L 42.804687,36.75 v -8.546875 l -2.117188,0.757812 V 28.546875 L 43.742187,26.8125 h 0.40625 z"
       style="font-weight:normal;font-size:16px;font-family:'Liberation Serif';-inkscape-font-specification:'Liberation Serif';white-space:pre;fill:#c0f3fe;stroke-width:3"
       id="path4498" /></g></svg>
